<?xml version="1.0" encoding="UTF-8" standalone="no"?>
<!DOCTYPE svg PUBLIC "-//W3C//DTD SVG 1.1//EN"
 "http://www.w3.org/Graphics/SVG/1.1/DTD/svg11.dtd">
<!-- Generated by graphviz version 2.38.0 (20140413.2041)
 -->
<!-- Title: workflow Pages: 1 -->
<svg width="759pt" height="283pt"
 viewBox="0.00 0.00 759.00 282.50" xmlns="http://www.w3.org/2000/svg" xmlns:xlink="http://www.w3.org/1999/xlink">
<g id="graph0" class="graph" transform="scale(1 1) rotate(0) translate(4 278.5)">
<title>workflow</title>
<polygon fill="white" stroke="none" points="-4,4 -4,-278.5 755,-278.5 755,4 -4,4"/>
<!-- place_0e7766b460fd2a39a2fd81d4a3a636b033b52be4 -->
<g id="node1" class="node"><title>place_0e7766b460fd2a39a2fd81d4a3a636b033b52be4</title>
<ellipse fill="lightblue" stroke="#333333" cx="36" cy="-84" rx="36" ry="36"/>
<text text-anchor="middle" x="36" y="-81.8" font-family="Arial" font-size="9.00">draft</text>
</g>
<!-- transition_b6589fc6ab0dc82cf12099d1c2d40ab994e8410c -->
<g id="node6" class="node"><title>transition_b6589fc6ab0dc82cf12099d1c2d40ab994e8410c</title>
<polygon fill="none" stroke="#333333" points="180,-154 108,-154 108,-82 180,-82 180,-154"/>
<text text-anchor="middle" x="144" y="-115.8" font-family="Arial" font-size="9.00">to_review</text>
</g>
<!-- place_0e7766b460fd2a39a2fd81d4a3a636b033b52be4&#45;&gt;transition_b6589fc6ab0dc82cf12099d1c2d40ab994e8410c -->
<g id="edge1" class="edge"><title>place_0e7766b460fd2a39a2fd81d4a3a636b033b52be4&#45;&gt;transition_b6589fc6ab0dc82cf12099d1c2d40ab994e8410c</title>
<path fill="none" stroke="#333333" d="M70.5391,-94.7578C80.8483,-98.0645 92.2983,-101.737 102.996,-105.168"/>
<polygon fill="#333333" stroke="#333333" points="102.555,-106.865 107.851,-106.726 103.624,-103.532 102.555,-106.865"/>
</g>
<!-- place_ab41949825606da179db7c89ddcedcc167b64847 -->
<g id="node2" class="node"><title>place_ab41949825606da179db7c89ddcedcc167b64847</title>
<ellipse fill="none" stroke="#333333" cx="252" cy="-125" rx="36" ry="36"/>
<text text-anchor="middle" x="252" y="-122.8" font-family="Arial" font-size="9.00">editor</text>
</g>
<!-- transition_356a192b7913b04c54574d18c28d46e6395428ab -->
<g id="node7" class="node"><title>transition_356a192b7913b04c54574d18c28d46e6395428ab</title>
<polygon fill="none" stroke="#333333" points="413,-274.5 324,-274.5 324,-185.5 413,-185.5 413,-274.5"/>
<text text-anchor="middle" x="368.5" y="-227.8" font-family="Arial" font-size="9.00">editor_approuved</text>
</g>
<!-- place_ab41949825606da179db7c89ddcedcc167b64847&#45;&gt;transition_356a192b7913b04c54574d18c28d46e6395428ab -->
<g id="edge3" class="edge"><title>place_ab41949825606da179db7c89ddcedcc167b64847&#45;&gt;transition_356a192b7913b04c54574d18c28d46e6395428ab</title>
<path fill="none" stroke="#333333" d="M279.269,-149.089C291.339,-160.158 306.038,-173.637 319.95,-186.395"/>
<polygon fill="#333333" stroke="#333333" points="318.982,-187.882 323.85,-189.972 321.348,-185.303 318.982,-187.882"/>
</g>
<!-- transition_da4b9237bacccdf19c0760cab7aec4a8359010b0 -->
<g id="node8" class="node"><title>transition_da4b9237bacccdf19c0760cab7aec4a8359010b0</title>
<polygon fill="none" stroke="#333333" points="404.5,-72 332.5,-72 332.5,-0 404.5,-0 404.5,-72"/>
<text text-anchor="middle" x="368.5" y="-33.8" font-family="Arial" font-size="9.00">editor_fail</text>
</g>
<!-- place_ab41949825606da179db7c89ddcedcc167b64847&#45;&gt;transition_da4b9237bacccdf19c0760cab7aec4a8359010b0 -->
<g id="edge5" class="edge"><title>place_ab41949825606da179db7c89ddcedcc167b64847&#45;&gt;transition_da4b9237bacccdf19c0760cab7aec4a8359010b0</title>
<path fill="none" stroke="#333333" d="M281.01,-103.228C295.171,-92.221 312.594,-78.6778 328.083,-66.6385"/>
<polygon fill="#333333" stroke="#333333" points="329.522,-67.7362 332.396,-63.286 327.374,-64.9728 329.522,-67.7362"/>
</g>
<!-- transition_77de68daecd823babbb58edb1c8e14d7106e83bb -->
<g id="node9" class="node"><title>transition_77de68daecd823babbb58edb1c8e14d7106e83bb</title>
<polygon fill="none" stroke="#333333" points="407,-167.5 330,-167.5 330,-90.5 407,-90.5 407,-167.5"/>
<text text-anchor="middle" x="368.5" y="-126.8" font-family="Arial" font-size="9.00">editor_refused</text>
</g>
<!-- place_ab41949825606da179db7c89ddcedcc167b64847&#45;&gt;transition_77de68daecd823babbb58edb1c8e14d7106e83bb -->
<g id="edge7" class="edge"><title>place_ab41949825606da179db7c89ddcedcc167b64847&#45;&gt;transition_77de68daecd823babbb58edb1c8e14d7106e83bb</title>
<path fill="none" stroke="#333333" d="M288.288,-126.233C299.787,-126.634 312.679,-127.085 324.669,-127.504"/>
<polygon fill="#333333" stroke="#333333" points="324.688,-129.255 329.746,-127.681 324.81,-125.757 324.688,-129.255"/>
</g>
<!-- place_c76ba0b7a0c555cac0a662d782ce4a62bac0b449 -->
<g id="node3" class="node"><title>place_c76ba0b7a0c555cac0a662d782ce4a62bac0b449</title>
<ellipse fill="none" stroke="#333333" cx="485" cy="-230" rx="36" ry="36"/>
<text text-anchor="middle" x="485" y="-227.8" font-family="Arial" font-size="9.00">editor_ok</text>
</g>
<!-- transition_1b6453892473a467d07372d45eb05abc2031647a -->
<g id="node10" class="node"><title>transition_1b6453892473a467d07372d45eb05abc2031647a</title>
<polygon fill="none" stroke="#333333" points="643,-273 557,-273 557,-187 643,-187 643,-273"/>
<text text-anchor="middle" x="600" y="-227.8" font-family="Arial" font-size="9.00">to_be_published</text>
</g>
<!-- place_c76ba0b7a0c555cac0a662d782ce4a62bac0b449&#45;&gt;transition_1b6453892473a467d07372d45eb05abc2031647a -->
<g id="edge9" class="edge"><title>place_c76ba0b7a0c555cac0a662d782ce4a62bac0b449&#45;&gt;transition_1b6453892473a467d07372d45eb05abc2031647a</title>
<path fill="none" stroke="#333333" d="M521.134,-230C530.734,-230 541.299,-230 551.466,-230"/>
<polygon fill="#333333" stroke="#333333" points="551.74,-231.75 556.74,-230 551.74,-228.25 551.74,-231.75"/>
</g>
<!-- place_a503bc1da23a6a8fafc646f69e65cc7d22fd4b53 -->
<g id="node4" class="node"><title>place_a503bc1da23a6a8fafc646f69e65cc7d22fd4b53</title>
<ellipse fill="none" stroke="#333333" cx="485" cy="-129" rx="36" ry="36"/>
<text text-anchor="middle" x="485" y="-126.8" font-family="Arial" font-size="9.00">refused</text>
</g>
<!-- place_c2807535f28e44fe6c7375dcf90518115529a8fa -->
<g id="node5" class="node"><title>place_c2807535f28e44fe6c7375dcf90518115529a8fa</title>
<ellipse fill="none" stroke="#333333" cx="715" cy="-230" rx="36" ry="36"/>
<text text-anchor="middle" x="715" y="-227.8" font-family="Arial" font-size="9.00">published</text>
</g>
<!-- transition_b6589fc6ab0dc82cf12099d1c2d40ab994e8410c&#45;&gt;place_ab41949825606da179db7c89ddcedcc167b64847 -->
<g id="edge2" class="edge"><title>transition_b6589fc6ab0dc82cf12099d1c2d40ab994e8410c&#45;&gt;place_ab41949825606da179db7c89ddcedcc167b64847</title>
<path fill="none" stroke="#333333" d="M180.002,-120.311C189.862,-120.963 200.664,-121.676 210.802,-122.345"/>
<polygon fill="#333333" stroke="#333333" points="210.93,-124.108 216.035,-122.691 211.161,-120.615 210.93,-124.108"/>
</g>
<!-- transition_356a192b7913b04c54574d18c28d46e6395428ab&#45;&gt;place_c76ba0b7a0c555cac0a662d782ce4a62bac0b449 -->
<g id="edge4" class="edge"><title>transition_356a192b7913b04c54574d18c28d46e6395428ab&#45;&gt;place_c76ba0b7a0c555cac0a662d782ce4a62bac0b449</title>
<path fill="none" stroke="#333333" d="M413.114,-230C423.124,-230 433.725,-230 443.593,-230"/>
<polygon fill="#333333" stroke="#333333" points="443.679,-231.75 448.679,-230 443.679,-228.25 443.679,-231.75"/>
</g>
<!-- transition_da4b9237bacccdf19c0760cab7aec4a8359010b0&#45;&gt;place_0e7766b460fd2a39a2fd81d4a3a636b033b52be4 -->
<g id="edge6" class="edge"><title>transition_da4b9237bacccdf19c0760cab7aec4a8359010b0&#45;&gt;place_0e7766b460fd2a39a2fd81d4a3a636b033b52be4</title>
<path fill="none" stroke="#333333" d="M332.223,-40.8922C282.282,-47.8494 188.122,-61.0818 108,-73 97.8214,-74.5141 86.8295,-76.1947 76.6056,-77.7772"/>
<polygon fill="#333333" stroke="#333333" points="76.3279,-76.0493 71.6552,-78.5451 76.8644,-79.508 76.3279,-76.0493"/>
</g>
<!-- transition_77de68daecd823babbb58edb1c8e14d7106e83bb&#45;&gt;place_a503bc1da23a6a8fafc646f69e65cc7d22fd4b53 -->
<g id="edge8" class="edge"><title>transition_77de68daecd823babbb58edb1c8e14d7106e83bb&#45;&gt;place_a503bc1da23a6a8fafc646f69e65cc7d22fd4b53</title>
<path fill="none" stroke="#333333" d="M407.309,-129C419.05,-129 432.03,-129 443.92,-129"/>
<polygon fill="#333333" stroke="#333333" points="443.942,-130.75 448.942,-129 443.942,-127.25 443.942,-130.75"/>
</g>
<!-- transition_1b6453892473a467d07372d45eb05abc2031647a&#45;&gt;place_c2807535f28e44fe6c7375dcf90518115529a8fa -->
<g id="edge10" class="edge"><title>transition_1b6453892473a467d07372d45eb05abc2031647a&#45;&gt;place_c2807535f28e44fe6c7375dcf90518115529a8fa</title>
<path fill="none" stroke="#333333" d="M643.077,-230C653.123,-230 663.82,-230 673.78,-230"/>
<polygon fill="#333333" stroke="#333333" points="673.914,-231.75 678.914,-230 673.914,-228.25 673.914,-231.75"/>
</g>
</g>
</svg>
